<?xml version="1.0" encoding="iso-8859-1"?>
<!-- Generator: Adobe Illustrator 26.0.1, SVG Export Plug-In . SVG Version: 6.00 Build 0)  -->
<svg version="1.0" id="&#x421;&#x43B;&#x43E;&#x439;_1"
	 xmlns="http://www.w3.org/2000/svg" xmlns:xlink="http://www.w3.org/1999/xlink" x="0px" y="0px" viewBox="0 0 500 500"
	 enable-background="new 0 0 500 500" xml:space="preserve">
<g>
	<path fill="#F9C712" d="M411.31,257.76l-6.38-2.79c-2.14-0.89-4.32-1.71-6.47-2.57l-6.49-2.55l-6.57-2.31
		c-2.19-0.76-4.38-1.56-6.58-2.3l-6.67-2.04l-6.67-2.03l-3.09-0.83v-56.78c0-1.32-0.64-2.55-1.72-3.3l-63.23-43.92V88.28l-87-44.24
		v55.49l-46.36,17.44c-1.57,0.59-2.6,2.09-2.6,3.76V233.8l-3.26,0.63l-6.81,1.54l-6.79,1.58l-6.74,1.81l-6.73,1.81l-6.67,2.03
		l-6.67,2.04c-2.21,0.73-4.39,1.53-6.59,2.29l-6.57,2.32l-6.49,2.55c-2.16,0.86-4.33,1.68-6.47,2.57l-6.38,2.79
		c-16.94,7.57-33.32,16.47-48.41,27.14c32.08-18.39,66.85-31.11,102.51-39.46l6.69-1.55l6.74-1.33l6.73-1.37l6.77-1.16l6.77-1.15
		c2.26-0.36,4.53-0.63,6.8-0.95l6.8-0.93c2.26-0.34,4.55-0.5,6.82-0.76c18.19-2.04,36.49-3.07,54.8-3.04
		c18.31-0.04,36.61,1.01,54.8,3.03c18.2,1.94,36.27,5.11,54.12,9.19c35.66,8.34,70.43,21.07,102.51,39.47
		C444.62,274.23,428.25,265.33,411.31,257.76z M210.43,226.85c-5.95,0.5-11.89,1.1-17.82,1.84c-2.31,0.31-4.62,0.52-6.92,0.91
		l-6.9,1.08c-2.3,0.37-4.6,0.69-6.89,1.11l-2.41,0.46V123.51l40.93-15.4V226.85z M289.4,227.13c-13.66-1.25-27.38-1.87-41.1-1.95
		c-9.95,0.05-19.91,0.41-29.84,1.07V57.13L289.4,93.2V227.13z M354.35,238.23c-16.55-4.26-33.41-7.31-50.36-9.52
		c-2.18-0.27-4.37-0.53-6.56-0.77v-52.48l56.92,34.88V238.23z M354.35,207.57l-56.92-34.88v-26.56l56.92,39.54V207.57z"/>
	<path fill="#F9C712" d="M273.57,227.5c1.3,0,2.36-1.06,2.36-2.36V110.82c0-1.3-1.06-2.36-2.36-2.36c-1.3,0-2.36,1.06-2.36,2.36
		v114.32C271.21,226.44,272.27,227.5,273.57,227.5z"/>
	<path fill="#F9C712" d="M282.31,159.24c0.78,0,1.42-0.64,1.42-1.42v-6.14c0-0.78-0.64-1.42-1.42-1.42s-1.42,0.64-1.42,1.42v6.14
		C280.9,158.6,281.53,159.24,282.31,159.24z"/>
	<path fill="#F9C712" d="M310.88,225.81c0.77,0.1,1.49-0.46,1.58-1.23l0.76-6.09c0.1-0.77-0.46-1.49-1.23-1.58
		c-0.77-0.1-1.49,0.46-1.58,1.23l-0.76,6.09C309.55,225,310.1,225.71,310.88,225.81z"/>
	<path fill="#F9C712" d="M326.47,228.17c0.77,0.1,1.49-0.46,1.58-1.23l0.76-6.09c0.1-0.77-0.46-1.49-1.23-1.58
		c-0.77-0.1-1.49,0.46-1.58,1.23l-0.76,6.09C325.14,227.36,325.69,228.08,326.47,228.17z"/>
	<path fill="#F9C712" d="M255.6,157.34c0.22,0.17,0.47,0.25,0.73,0.25c0.35,0,0.7-0.16,0.93-0.45c0.4-0.51,0.31-1.26-0.21-1.66
		l-23.62-18.42c-0.52-0.4-1.26-0.31-1.66,0.21c-0.4,0.51-0.31,1.26,0.21,1.66L255.6,157.34z"/>
	<path fill="#F9C712" d="M255.6,179.07c0.22,0.17,0.47,0.25,0.73,0.25c0.35,0,0.7-0.16,0.93-0.45c0.4-0.51,0.31-1.26-0.21-1.66
		l-23.62-18.42c-0.52-0.4-1.26-0.31-1.66,0.21c-0.4,0.51-0.31,1.26,0.21,1.66L255.6,179.07z"/>
	<path fill="#F9C712" d="M255.6,200.8c0.22,0.17,0.47,0.25,0.73,0.25c0.35,0,0.7-0.16,0.93-0.45c0.4-0.51,0.31-1.26-0.21-1.66
		l-23.62-18.42c-0.52-0.4-1.26-0.31-1.66,0.21c-0.4,0.51-0.31,1.26,0.21,1.66L255.6,200.8z"/>
	<path fill="#F9C712" d="M256.33,222.78c0.35,0,0.7-0.16,0.93-0.45c0.4-0.51,0.31-1.26-0.21-1.66l-23.62-18.42
		c-0.52-0.4-1.26-0.31-1.66,0.21c-0.4,0.51-0.31,1.26,0.21,1.66l23.62,18.42C255.82,222.7,256.08,222.78,256.33,222.78z"/>
	<path fill="#F9C712" d="M208.92,164.31c0.58-0.3,0.81-1.01,0.52-1.59c-0.3-0.58-1.01-0.81-1.59-0.52l-8.68,4.41v-16.25l9.75-4.95
		c0.58-0.3,0.81-1.01,0.52-1.59c-0.3-0.58-1.01-0.81-1.59-0.52l-8.68,4.41v-3.35c0-0.65-0.53-1.18-1.18-1.18
		c-0.65,0-1.18,0.53-1.18,1.18v4.55l-8.98,4.56v-9.11c0-0.65-0.53-1.18-1.18-1.18s-1.18,0.53-1.18,1.18v10.31l-7.38,3.75
		c-0.58,0.3-0.81,1.01-0.52,1.59c0.21,0.41,0.62,0.65,1.05,0.65c0.18,0,0.36-0.04,0.53-0.13l6.31-3.21v16.25l-7.38,3.75
		c-0.58,0.3-0.81,1.01-0.52,1.59c0.21,0.41,0.62,0.65,1.05,0.65c0.18,0,0.36-0.04,0.53-0.13l6.31-3.21v16.25l-7.38,3.75
		c-0.58,0.3-0.81,1.01-0.52,1.59c0.21,0.41,0.62,0.65,1.05,0.65c0.18,0,0.36-0.04,0.53-0.13l6.31-3.21v16.25l-7.38,3.75
		c-0.58,0.3-0.81,1.01-0.52,1.59c0.21,0.41,0.62,0.65,1.05,0.65c0.18,0,0.36-0.04,0.53-0.13l6.31-3.21v14.91
		c0,0.65,0.53,1.18,1.18,1.18s1.18-0.53,1.18-1.18v-16.11l8.98-4.56v20.67c0,0.65,0.53,1.18,1.18,1.18c0.65,0,1.18-0.53,1.18-1.18
		v-21.87l9.75-4.95c0.58-0.3,0.81-1.01,0.52-1.59c-0.3-0.58-1.01-0.81-1.59-0.52l-8.68,4.41v-16.25l9.75-4.95
		c0.58-0.3,0.81-1.01,0.52-1.59c-0.3-0.58-1.01-0.81-1.59-0.52l-8.68,4.41v-16.25L208.92,164.31z M196.81,205.6l-8.98,4.56v-16.25
		l8.98-4.56V205.6z M196.81,186.71l-8.98,4.56v-16.25l8.98-4.56V186.71z M196.81,167.81l-8.98,4.56v-16.25l8.98-4.56V167.81z"/>
	<path fill="#F9C712" d="M318.83,237.85c0.02,0,0.04,0,0.07,0c0.62,0,1.14-0.49,1.18-1.12l1.32-23.88c0.04-0.65-0.46-1.21-1.11-1.24
		c-0.65-0.05-1.21,0.46-1.24,1.11l-1.32,23.88C317.68,237.25,318.18,237.81,318.83,237.85z"/>
	<path fill="#F9C712" d="M334.22,191.52l-21.04-13.58c-1.86-1.2-4.35-0.67-5.55,1.2c-1.2,1.86-0.67,4.35,1.2,5.55l21.04,13.58
		c0.74,0.47,1.57,0.68,2.38,0.64c1.24-0.06,2.44-0.71,3.17-1.83C336.62,195.21,336.08,192.72,334.22,191.52z"/>
	<circle fill="#FFFFFF" cx="259.23" cy="380.38" r="3.61"/>
	<g>
		<path fill="#F9C712" d="M58.08,303.7l-6.1,3.23l-0.56-1.06l0.6-0.38c0.48-0.3,0.76-0.61,0.82-0.93c0.06-0.32-0.14-0.93-0.61-1.83
			l-4.46-8.42c-0.48-0.9-0.87-1.42-1.17-1.54c-0.3-0.13-0.72-0.07-1.24,0.16l-0.63,0.28l-0.57-1.07l6.57-3.48
			c1.52-0.8,2.74-1.33,3.66-1.59c0.92-0.26,1.82-0.36,2.71-0.3c1.41,0.09,2.69,0.53,3.85,1.31c1.16,0.78,2.09,1.84,2.8,3.19
			c0.71,1.35,1.07,2.73,1.06,4.13s-0.37,2.71-1.1,3.93c-0.44,0.73-0.99,1.38-1.67,1.95c-0.68,0.58-1.78,1.27-3.3,2.07L58.08,303.7z
			 M51.49,292.33l4.46,8.42c0.51,0.96,0.96,1.48,1.35,1.57c0.39,0.08,1-0.1,1.83-0.54c1.32-0.7,2.02-1.73,2.11-3.1
			c0.09-1.37-0.43-3.12-1.57-5.26c-1.12-2.11-2.29-3.53-3.52-4.24c-1.23-0.72-2.49-0.73-3.79-0.04c-0.79,0.42-1.26,0.81-1.41,1.18
			C50.8,290.69,50.98,291.36,51.49,292.33z"/>
		<path fill="#F9C712" d="M73.06,277.37c1.19-0.53,2.37-0.83,3.54-0.92c1.17-0.09,2.29,0.05,3.35,0.4c1.15,0.38,2.17,0.98,3.05,1.8
			c0.88,0.82,1.57,1.81,2.09,2.98c0.51,1.16,0.78,2.34,0.79,3.54c0.01,1.2-0.23,2.35-0.72,3.46c-0.47,1.04-1.12,1.97-1.97,2.78
			c-0.84,0.81-1.84,1.47-2.99,1.98c-1.18,0.52-2.37,0.83-3.55,0.91c-1.18,0.08-2.31-0.05-3.38-0.42c-1.14-0.38-2.14-0.97-2.99-1.77
			c-0.85-0.8-1.54-1.81-2.08-3.02c-0.54-1.21-0.81-2.4-0.83-3.57c-0.02-1.17,0.21-2.31,0.7-3.42c0.46-1.02,1.12-1.94,1.97-2.75
			C70.9,278.54,71.91,277.88,73.06,277.37z M79.73,292.3c1.38-0.61,2.16-1.66,2.35-3.15c0.19-1.49-0.22-3.37-1.22-5.65
			c-1.01-2.28-2.13-3.84-3.36-4.7c-1.23-0.86-2.54-0.98-3.91-0.37c-1.39,0.61-2.18,1.66-2.38,3.14c-0.19,1.48,0.22,3.36,1.23,5.65
			c1.01,2.28,2.13,3.85,3.36,4.71C77.03,292.79,78.34,292.91,79.73,292.3z"/>
		<path fill="#F9C712" d="M95.29,268.4c1.22-0.45,2.42-0.67,3.59-0.69c1.17-0.01,2.28,0.2,3.32,0.62c1.13,0.46,2.1,1.12,2.92,1.99
			c0.82,0.87,1.45,1.91,1.89,3.11c0.44,1.19,0.62,2.39,0.56,3.58c-0.07,1.2-0.38,2.33-0.95,3.41c-0.53,1.01-1.25,1.89-2.14,2.64
			c-0.9,0.75-1.93,1.35-3.11,1.78c-1.21,0.44-2.42,0.67-3.6,0.68s-2.3-0.21-3.34-0.64c-1.12-0.45-2.07-1.11-2.87-1.97
			c-0.8-0.86-1.42-1.91-1.88-3.15c-0.45-1.24-0.65-2.45-0.6-3.62c0.06-1.17,0.36-2.29,0.92-3.36c0.52-0.99,1.24-1.86,2.15-2.62
			S94.1,268.84,95.29,268.4z M100.96,283.74c1.41-0.52,2.27-1.51,2.56-2.99c0.29-1.48,0.01-3.38-0.85-5.72
			c-0.85-2.34-1.87-3.97-3.04-4.91c-1.17-0.94-2.46-1.15-3.88-0.63c-1.43,0.52-2.29,1.51-2.58,2.98c-0.29,1.46-0.01,3.37,0.85,5.72
			c0.86,2.34,1.87,3.99,3.04,4.92C98.23,284.06,99.53,284.26,100.96,283.74z"/>
		<path fill="#F9C712" d="M118.87,274.72c0.29,0.96,0.57,1.53,0.85,1.72c0.28,0.19,0.7,0.22,1.27,0.09l0.66-0.14l0.35,1.15
			l-8.2,2.46l-0.35-1.15l0.66-0.26c0.53-0.2,0.86-0.45,0.99-0.75c0.13-0.3,0.04-0.94-0.25-1.91l-2.74-9.13
			c-0.29-0.98-0.58-1.56-0.85-1.74c-0.27-0.18-0.69-0.21-1.25-0.08l-0.68,0.16l-0.35-1.16l7.12-2.14c2.98-0.89,5.16-1.23,6.54-1
			c1.38,0.23,2.28,1.04,2.7,2.43c0.33,1.11,0.12,2.11-0.64,3c-0.76,0.9-2.09,1.72-4,2.49c1.25-0.14,2.28-0.07,3.1,0.21
			c0.82,0.27,1.51,0.79,2.08,1.53c0.24,0.31,0.48,0.73,0.72,1.24c0.23,0.51,0.38,0.83,0.45,0.93c0.22,0.34,0.41,0.56,0.56,0.65
			c0.15,0.09,0.33,0.1,0.52,0.04c0.38-0.11,0.58-0.42,0.62-0.93c0.03-0.5-0.1-1.3-0.41-2.38l1.05-0.32c0.04,0.09,0.08,0.19,0.12,0.3
			c0.04,0.11,0.09,0.27,0.16,0.5c0.45,1.51,0.49,2.77,0.1,3.77c-0.39,1-1.18,1.68-2.38,2.04c-0.51,0.15-1.01,0.2-1.51,0.13
			s-0.94-0.23-1.33-0.5c-0.72-0.5-1.53-1.87-2.43-4.12c-0.07-0.18-0.12-0.32-0.16-0.41c-0.38-0.93-0.87-1.49-1.47-1.69
			c-0.6-0.2-1.54-0.1-2.84,0.29l-0.15,0.05L118.87,274.72z M116.15,265.65l1.03,3.42c0.13-0.03,0.27-0.07,0.42-0.11
			c0.15-0.04,0.37-0.1,0.65-0.19c1.41-0.42,2.33-0.95,2.79-1.58c0.45-0.63,0.52-1.49,0.2-2.56c-0.27-0.9-0.74-1.52-1.41-1.86
			c-0.67-0.34-1.47-0.38-2.39-0.1c-0.77,0.23-1.25,0.52-1.46,0.86C115.77,263.88,115.83,264.58,116.15,265.65z"/>
		<path fill="#F9C712" d="M136.44,273.91l-1.2,0.3l-1.84-6.61l1.17-0.29c1.09,1.62,2.26,2.76,3.49,3.42
			c1.24,0.65,2.53,0.81,3.88,0.48c0.82-0.2,1.42-0.59,1.81-1.16c0.39-0.57,0.5-1.22,0.32-1.95c-0.15-0.6-0.47-1.06-0.97-1.38
			c-0.5-0.32-1.27-0.55-2.32-0.7c-0.32-0.04-0.81-0.11-1.45-0.19c-1.65-0.22-2.84-0.43-3.56-0.65c-0.98-0.29-1.74-0.7-2.3-1.22
			c-0.56-0.52-0.94-1.19-1.14-2c-0.35-1.4-0.13-2.68,0.66-3.84c0.78-1.15,1.96-1.93,3.53-2.31c0.87-0.22,1.83-0.28,2.88-0.2
			c1.05,0.09,1.62,0.11,1.73,0.09c0.18-0.04,0.33-0.16,0.43-0.34c0.1-0.18,0.18-0.46,0.24-0.83l1.06-0.26l1.37,5.28l-1.06,0.26
			c-0.84-1.23-1.77-2.07-2.78-2.53c-1.01-0.46-2.13-0.55-3.34-0.25c-0.84,0.21-1.47,0.57-1.88,1.08c-0.41,0.51-0.53,1.08-0.38,1.71
			c0.23,0.95,1.75,1.58,4.54,1.91l0.1,0.01c1.48,0.16,2.55,0.32,3.19,0.46c0.65,0.14,1.18,0.31,1.6,0.51
			c0.72,0.36,1.29,0.81,1.72,1.34c0.43,0.53,0.73,1.18,0.92,1.94c0.38,1.56,0.17,2.92-0.64,4.08c-0.81,1.16-2.1,1.96-3.87,2.4
			c-0.57,0.14-1.17,0.22-1.79,0.22c-0.62,0.01-1.32-0.05-2.11-0.18c-0.13-0.02-0.3-0.05-0.53-0.09c-0.49-0.1-0.81-0.13-0.96-0.09
			c-0.21,0.05-0.37,0.22-0.46,0.49C136.44,273.08,136.41,273.45,136.44,273.91z"/>
		<path fill="#F9C712" d="M160.31,254.55c-0.35-0.79-0.74-1.34-1.17-1.63c-0.43-0.3-0.96-0.4-1.6-0.3l-0.21-1.2l7.5-1.27l0.19,1.2
			c-0.42,0.09-0.73,0.25-0.94,0.49c-0.21,0.24-0.29,0.53-0.23,0.86c0.02,0.1,0.07,0.26,0.15,0.47s0.2,0.47,0.35,0.79l3.47,7.69
			l1.33-8.59c-0.33-0.95-0.63-1.55-0.91-1.8c-0.28-0.25-0.66-0.34-1.16-0.25l-0.18,0.03l-0.2-1.2l6.89-1.17l0.2,1.2
			c-0.45,0.1-0.76,0.24-0.92,0.42c-0.16,0.18-0.22,0.44-0.16,0.78c0.03,0.17,0.06,0.33,0.1,0.47c0.04,0.14,0.08,0.27,0.14,0.39
			l3.39,8.17l1.3-7.88c0.05-0.32,0.09-0.64,0.1-0.95c0.01-0.31,0-0.55-0.03-0.73c-0.08-0.45-0.27-0.75-0.59-0.91
			c-0.32-0.16-0.79-0.18-1.42-0.08l-0.2-1.2l5.62-0.95l0.2,1.2c-0.59,0.21-1.06,0.59-1.42,1.15s-0.63,1.32-0.8,2.29l-2.39,13.54
			l-1.88,0.32l-4.68-10.64L168.19,267l-2.1,0.36L160.31,254.55z"/>
		<path fill="#F9C712" d="M192.99,246.01l0.15,1.2l-0.66,0.13c-0.57,0.11-0.94,0.31-1.12,0.59c-0.18,0.29-0.21,0.93-0.09,1.93
			l1.18,9.46c0.12,0.99,0.31,1.6,0.55,1.83c0.24,0.23,0.65,0.33,1.24,0.3l0.67-0.03l0.15,1.19l-8.5,1.06l-0.15-1.19l0.69-0.14
			c0.56-0.11,0.92-0.3,1.1-0.58c0.18-0.28,0.2-0.92,0.07-1.92l-1.18-9.46c-0.13-1.01-0.31-1.63-0.55-1.86
			c-0.24-0.23-0.64-0.32-1.22-0.29l-0.69,0.04l-0.15-1.2L192.99,246.01z"/>
		<path fill="#F9C712" d="M212.4,248.36c-0.1-1.18-0.33-1.94-0.7-2.3c-0.36-0.36-1.02-0.51-1.96-0.46l-0.1-1.2l6.14-0.53l0.1,1.21
			c-0.88,0.11-1.46,0.37-1.74,0.79c-0.28,0.42-0.37,1.21-0.27,2.37l1.08,12.5l-1.92,0.17l-11.55-11.31l0.7,8.05
			c0.1,1.18,0.34,1.94,0.71,2.3c0.37,0.36,1.03,0.51,1.98,0.46l0.1,1.2l-6.27,0.54l-0.1-1.2c0.93-0.11,1.54-0.37,1.84-0.79
			c0.29-0.42,0.39-1.21,0.29-2.39l-0.85-9.79c-0.4-0.44-0.81-0.76-1.22-0.96c-0.41-0.21-0.87-0.32-1.36-0.34l-0.1-1.2l5.39-0.47
			L213,255.35L212.4,248.36z"/>
		<path fill="#F9C712" d="M227.67,260.05l-6.89,0.27l-0.05-1.2l0.7-0.08c0.57-0.06,0.95-0.22,1.15-0.48c0.2-0.26,0.28-0.9,0.24-1.91
			l-0.37-9.52c-0.04-1.02-0.17-1.65-0.39-1.9s-0.61-0.38-1.19-0.39l-0.69-0.02l-0.05-1.21l7.43-0.29c1.72-0.07,3.04-0.02,3.99,0.15
			c0.94,0.17,1.8,0.47,2.57,0.9c1.23,0.69,2.2,1.64,2.91,2.85c0.71,1.21,1.09,2.57,1.15,4.09c0.06,1.53-0.22,2.92-0.83,4.18
			c-0.61,1.26-1.51,2.28-2.69,3.06c-0.71,0.47-1.49,0.81-2.35,1.04c-0.86,0.23-2.15,0.37-3.87,0.44L227.67,260.05z M226.65,246.95
			l0.37,9.52c0.04,1.09,0.22,1.75,0.54,1.99c0.32,0.24,0.94,0.34,1.88,0.31c1.49-0.06,2.57-0.69,3.24-1.88
			c0.67-1.2,0.96-3,0.87-5.42c-0.09-2.39-0.54-4.17-1.33-5.35c-0.8-1.18-1.93-1.74-3.4-1.68c-0.89,0.03-1.49,0.19-1.78,0.46
			C226.73,245.17,226.6,245.86,226.65,246.95z"/>
		<path fill="#F9C712" d="M252.25,242.52c1.3,0.01,2.5,0.22,3.6,0.62c1.1,0.4,2.07,0.98,2.89,1.75c0.89,0.82,1.57,1.79,2.04,2.89
			c0.46,1.1,0.69,2.3,0.68,3.57c-0.01,1.27-0.26,2.45-0.74,3.55c-0.48,1.1-1.18,2.05-2.08,2.86c-0.85,0.76-1.83,1.33-2.94,1.72
			c-1.1,0.39-2.28,0.58-3.54,0.57c-1.29-0.01-2.5-0.22-3.61-0.63c-1.11-0.41-2.08-1-2.91-1.77c-0.89-0.82-1.55-1.77-2-2.85
			c-0.44-1.08-0.66-2.28-0.65-3.61c0.01-1.32,0.25-2.52,0.71-3.6c0.46-1.07,1.14-2.02,2.04-2.83c0.84-0.74,1.81-1.31,2.93-1.7
			C249.8,242.7,250.99,242.51,252.25,242.52z M252.17,258.87c1.5,0.01,2.65-0.62,3.44-1.9c0.79-1.28,1.19-3.16,1.21-5.65
			c0.02-2.49-0.35-4.38-1.12-5.67c-0.77-1.29-1.91-1.94-3.41-1.95c-1.52-0.01-2.67,0.62-3.46,1.88c-0.79,1.27-1.19,3.15-1.21,5.66
			c-0.02,2.5,0.35,4.39,1.12,5.68C249.51,258.21,250.65,258.86,252.17,258.87z"/>
		<path fill="#F9C712" d="M267.96,246.76c-0.16-0.85-0.42-1.47-0.77-1.85c-0.35-0.38-0.85-0.6-1.49-0.66l0.06-1.21l7.59,0.46
			l-0.08,1.21c-0.42-0.01-0.77,0.08-1.03,0.27c-0.26,0.19-0.4,0.45-0.42,0.78c-0.01,0.11,0.01,0.27,0.04,0.49
			c0.03,0.22,0.09,0.51,0.16,0.85l1.64,8.27l3.24-8.07c-0.11-1-0.27-1.65-0.48-1.96c-0.21-0.31-0.57-0.48-1.08-0.51l-0.18-0.01
			l0.07-1.21l6.98,0.42l-0.07,1.21c-0.46-0.01-0.79,0.06-0.99,0.2c-0.2,0.14-0.31,0.38-0.33,0.72c-0.01,0.17-0.01,0.33-0.01,0.48
			c0.01,0.14,0.02,0.28,0.04,0.41l1.45,8.73l3.05-7.39c0.12-0.3,0.23-0.6,0.31-0.9c0.08-0.3,0.13-0.54,0.14-0.72
			c0.03-0.45-0.1-0.79-0.37-1.02c-0.27-0.23-0.73-0.36-1.36-0.39l0.07-1.21l5.69,0.34l-0.07,1.21c-0.62,0.07-1.17,0.33-1.64,0.8
			c-0.48,0.46-0.91,1.15-1.3,2.05l-5.39,12.65l-1.9-0.11l-2.16-11.42l-4.53,11.02l-2.13-0.13L267.96,246.76z"/>
		<path fill="#F9C712" d="M293.68,262.21l-1.23-0.13l0.54-6.84l1.2,0.13c0.47,1.9,1.17,3.37,2.11,4.41c0.94,1.04,2.1,1.63,3.48,1.78
			c0.84,0.09,1.53-0.06,2.1-0.47c0.57-0.4,0.89-0.98,0.97-1.72c0.07-0.62-0.08-1.16-0.44-1.63c-0.36-0.47-1.01-0.96-1.94-1.46
			c-0.29-0.15-0.72-0.38-1.3-0.68c-1.48-0.77-2.52-1.38-3.12-1.84c-0.82-0.61-1.4-1.25-1.74-1.94c-0.34-0.68-0.47-1.44-0.38-2.27
			c0.16-1.44,0.8-2.56,1.93-3.38c1.13-0.82,2.5-1.14,4.11-0.96c0.89,0.1,1.82,0.37,2.77,0.8c0.95,0.44,1.49,0.66,1.6,0.68
			c0.19,0.02,0.36-0.04,0.52-0.17c0.16-0.13,0.33-0.37,0.51-0.7l1.08,0.12l-0.53,5.43l-1.08-0.12c-0.37-1.44-0.95-2.55-1.74-3.33
			c-0.79-0.78-1.81-1.24-3.05-1.38c-0.87-0.09-1.58,0.03-2.13,0.37c-0.56,0.34-0.87,0.83-0.94,1.48c-0.11,0.97,1.1,2.09,3.61,3.35
			l0.09,0.04c1.34,0.66,2.28,1.17,2.84,1.53c0.56,0.35,1,0.7,1.33,1.03c0.55,0.59,0.94,1.2,1.16,1.84c0.22,0.64,0.29,1.36,0.2,2.14
			c-0.17,1.59-0.84,2.8-2,3.61c-1.16,0.81-2.64,1.12-4.46,0.92c-0.59-0.06-1.17-0.2-1.75-0.4c-0.58-0.2-1.22-0.5-1.92-0.89
			c-0.12-0.07-0.27-0.16-0.46-0.27c-0.43-0.26-0.72-0.4-0.87-0.41c-0.22-0.02-0.42,0.08-0.6,0.3S293.81,261.76,293.68,262.21z"/>
		<path fill="#F9C712" d="M329.91,249.84l-0.21,1.2c-0.81-0.1-1.35-0.05-1.64,0.15c-0.29,0.19-0.53,0.82-0.72,1.87l-0.77,4.35
			l4.91-3.05c0.43-0.27,0.77-0.54,1.02-0.81c0.25-0.27,0.39-0.52,0.43-0.76c0.05-0.3-0.02-0.55-0.21-0.76
			c-0.19-0.21-0.57-0.43-1.15-0.66l0.21-1.2l7.75,1.37l-0.21,1.2c-0.72-0.07-1.46-0.03-2.19,0.13c-0.74,0.16-1.41,0.43-2.02,0.8
			l-3.46,2.11l3.87,8.94c0.31,0.75,0.65,1.29,1,1.64s0.79,0.57,1.3,0.66l0.19,0.03l-0.21,1.18l-8.56-1.51l0.21-1.18
			c0.56,0.08,0.98,0.09,1.27,0s0.45-0.25,0.49-0.5c0.02-0.11,0.02-0.23-0.01-0.35s-0.09-0.32-0.21-0.58l-2.62-6.27l-2.12,1.29
			l-0.59,3.32c-0.18,1.04-0.17,1.72,0.05,2.02c0.22,0.3,0.71,0.53,1.48,0.68l-0.21,1.18l-8.23-1.45l0.21-1.22l0.66,0.12
			c0.55,0.1,0.96,0.02,1.23-0.22c0.27-0.24,0.49-0.86,0.66-1.84l1.66-9.39c0.17-0.98,0.17-1.64-0.01-1.98
			c-0.18-0.34-0.56-0.55-1.15-0.66l-0.57-0.1l0.21-1.2L329.91,249.84z"/>
		<path fill="#F9C712" d="M352.32,254.33l-0.26,1.19l-0.66-0.1c-0.57-0.09-0.99-0.02-1.25,0.18c-0.27,0.21-0.51,0.81-0.72,1.79
			l-2.03,9.31c-0.21,0.98-0.24,1.61-0.09,1.91c0.15,0.3,0.51,0.53,1.07,0.69l0.64,0.2l-0.26,1.18l-8.37-1.83l0.26-1.18l0.7,0.09
			c0.56,0.08,0.97,0.02,1.23-0.18c0.26-0.2,0.49-0.8,0.71-1.79l2.03-9.31c0.22-1,0.25-1.64,0.1-1.93c-0.15-0.29-0.5-0.52-1.05-0.68
			l-0.67-0.19l0.26-1.19L352.32,254.33z"/>
		<path fill="#F9C712" d="M372.71,259.49l-1.56,6.44l-1.06-0.32c-0.08-2.11-0.37-3.65-0.86-4.61c-0.49-0.96-1.27-1.59-2.35-1.87
			c-0.23-0.06-0.38-0.05-0.46,0.02c-0.08,0.07-0.18,0.33-0.29,0.77l-2.96,11.35c-0.14,0.54-0.13,0.97,0.03,1.27
			c0.16,0.31,0.5,0.54,1.01,0.7l1.04,0.33l-0.3,1.16l-9.06-2.36l0.3-1.16l1.06,0.22c0.53,0.11,0.93,0.08,1.22-0.11
			c0.29-0.19,0.5-0.56,0.65-1.1l2.95-11.33c0.12-0.47,0.17-0.75,0.13-0.85c-0.03-0.09-0.17-0.17-0.4-0.23
			c-1.08-0.28-2.06-0.12-2.96,0.48c-0.9,0.6-1.9,1.8-3.01,3.6l-1.09-0.24l1.8-6.38L372.71,259.49z"/>
		<path fill="#F9C712" d="M389.01,276.08c-0.95,1.78-2.19,2.99-3.7,3.63c-1.51,0.63-3.21,0.65-5.1,0.05
			c-1.09-0.34-2.04-0.85-2.86-1.51c-0.82-0.66-1.49-1.47-2.01-2.43c-0.55-1.01-0.87-2.1-0.94-3.27c-0.07-1.17,0.1-2.41,0.51-3.71
			c0.4-1.25,0.97-2.32,1.72-3.22c0.75-0.9,1.67-1.61,2.76-2.14c0.98-0.48,1.99-0.75,3.04-0.83c1.05-0.08,2.09,0.05,3.13,0.38
			c0.43,0.14,0.84,0.31,1.23,0.52c0.39,0.21,0.75,0.44,1.07,0.7c0.1,0.09,0.24,0.21,0.43,0.37c0.69,0.59,1.17,0.93,1.42,1.01
			c0.25,0.08,0.47,0.04,0.67-0.1c0.2-0.14,0.35-0.38,0.46-0.71l1.16,0.37l-1.84,6.7l-1.12-0.36c0.1-2.05-0.09-3.62-0.58-4.69
			c-0.49-1.08-1.33-1.8-2.53-2.18c-1.45-0.46-2.73-0.21-3.84,0.73c-1.11,0.95-2.04,2.58-2.77,4.9c-0.75,2.37-0.96,4.23-0.65,5.6
			c0.32,1.37,1.18,2.27,2.58,2.71c1.17,0.37,2.32,0.3,3.43-0.22c1.11-0.52,2.09-1.43,2.92-2.75L389.01,276.08z"/>
		<path fill="#F9C712" d="M405.34,270.29l-0.43,1.13l-0.64-0.2c-0.55-0.17-0.97-0.17-1.27-0.01c-0.29,0.17-0.62,0.72-0.98,1.66
			l-1.29,3.38l5.84,2.23l1.29-3.38c0.36-0.94,0.48-1.57,0.38-1.89c-0.11-0.32-0.42-0.6-0.95-0.84l-0.64-0.29l0.43-1.13l8.03,3.07
			l-0.43,1.13l-0.66-0.2c-0.56-0.17-0.98-0.17-1.27-0.01c-0.29,0.17-0.62,0.72-0.97,1.66l-3.4,8.9c-0.36,0.93-0.48,1.56-0.37,1.89
			c0.11,0.32,0.42,0.6,0.94,0.83l0.64,0.3l-0.43,1.12l-8.03-3.07l0.43-1.12l0.68,0.2c0.56,0.17,0.98,0.17,1.27,0.01
			c0.29-0.17,0.62-0.72,0.97-1.65l1.63-4.26l-5.84-2.23l-1.63,4.26c-0.36,0.93-0.48,1.56-0.38,1.88c0.1,0.32,0.42,0.6,0.95,0.84
			l0.61,0.29l-0.43,1.12l-8-3.06l0.43-1.12l0.68,0.2c0.54,0.17,0.96,0.17,1.24,0.01c0.29-0.16,0.61-0.72,0.97-1.66l3.4-8.9
			c0.36-0.95,0.49-1.59,0.39-1.9c-0.1-0.31-0.42-0.59-0.94-0.83l-0.63-0.29l0.43-1.13L405.34,270.29z"/>
		<path fill="#F9C712" d="M433.33,282.2l-2.25,5.16l-1.11-0.51c0.41-1.47,0.37-2.72-0.12-3.74c-0.49-1.02-1.46-1.86-2.91-2.52
			c-0.81-0.37-1.41-0.5-1.8-0.39s-0.81,0.66-1.26,1.65l-1.53,3.37l0.95,0.43c0.83,0.38,1.55,0.43,2.18,0.17
			c0.63-0.26,1.18-0.85,1.67-1.77l1.09,0.5l-3.11,6.81l-1.09-0.51c0.39-1.04,0.49-1.9,0.29-2.57c-0.2-0.67-0.71-1.19-1.53-1.56
			l-0.95-0.43l-1.93,4.23c-0.47,1.04-0.65,1.73-0.53,2.07c0.12,0.34,0.55,0.67,1.27,1c1.54,0.7,2.87,0.9,3.98,0.6
			c1.11-0.3,2.25-1.17,3.42-2.61l1.1,0.5l-2.67,5.39l-13.89-6.33l0.5-1.09l0.66,0.24c0.53,0.2,0.94,0.23,1.24,0.09
			c0.29-0.14,0.65-0.68,1.07-1.6l3.95-8.67c0.42-0.93,0.59-1.55,0.51-1.87c-0.08-0.32-0.38-0.61-0.89-0.88l-0.61-0.33l0.5-1.1
			L433.33,282.2z"/>
		<path fill="#F9C712" d="M449.57,295.41c0.56-1.04,0.79-1.81,0.68-2.31c-0.11-0.5-0.57-0.99-1.39-1.46l0.57-1.06l5.42,2.92
			l-0.58,1.07c-0.79-0.39-1.42-0.49-1.89-0.3s-0.98,0.81-1.53,1.83l-5.96,11.05l-1.7-0.92l-3.44-15.79l-3.84,7.11
			c-0.56,1.04-0.78,1.81-0.67,2.31c0.11,0.5,0.58,0.99,1.4,1.47l-0.57,1.06l-5.54-2.99l0.57-1.06c0.84,0.42,1.5,0.53,1.97,0.35
			c0.47-0.19,0.99-0.8,1.55-1.84l4.66-8.65c-0.1-0.59-0.26-1.08-0.49-1.48c-0.23-0.4-0.55-0.74-0.95-1.03l0.57-1.06l4.76,2.57
			l3.05,14.38L449.57,295.41z"/>
	</g>
	<g>
		<g>
			<path fill="#FFFFFF" d="M142.28,415.14v-4.6h-21.03v17.96h21.03v-4.61h-14.02v-2.3h14.02v-4.16h-14.02v-2.3H142.28z"/>
			<path fill="#FFFFFF" d="M165.44,410.51v9.21c0.04,2.96-2.39,3.47-5.26,3.5c-2.88-0.04-5.29-0.55-5.26-3.5v-9.21h-7.01v9.65
				c-0.03,6.79,5.54,8.74,12.27,8.75c6.73-0.01,12.3-1.97,12.27-8.75v-9.65H165.44z"/>
			<path fill="#FFFFFF" d="M201.36,420.99c0.72-1.09,1.08-2.32,1.08-3.68c0.06-3.71-3.08-6.83-6.79-6.79h-17.31v17.96h7v-4.39h6.26
				l3.38,4.39h7.46l-3.92-5.04C199.7,422.9,200.65,422.08,201.36,420.99z M194.97,418.4c-0.29,0.29-0.65,0.44-1.08,0.44h-8.54v-3.06
				h8.54c0.85,0,1.54,0.69,1.54,1.54C195.42,417.74,195.28,418.09,194.97,418.4z"/>
			<path fill="#FFFFFF" d="M219.09,410.07c-6.77,0.01-12.3,1.97-12.27,8.77v1.31c-0.03,6.79,5.5,8.75,12.27,8.77
				c6.75-0.01,12.28-1.98,12.26-8.77v-1.31C231.34,412.05,225.85,410.07,219.09,410.07z M224.34,419.71
				c0.04,2.94-2.39,3.48-5.25,3.52c-2.88-0.04-5.31-0.58-5.27-3.52v-0.44c-0.04-2.93,2.39-3.47,5.27-3.5
				c2.86,0.04,5.29,0.58,5.25,3.5V419.71z"/>
			<path fill="#FFFFFF" d="M253.46,410.54h-17.31v17.96h7v-4.39h10.31c3.7,0.05,6.84-3.08,6.79-6.79
				C260.3,413.62,257.16,410.5,253.46,410.54z M252.77,418.41c-0.29,0.29-0.65,0.44-1.07,0.44h-8.56v-3.06h8.56
				c0.41,0,0.77,0.15,1.07,0.46c0.31,0.29,0.46,0.65,0.46,1.08C253.23,417.75,253.08,418.1,252.77,418.41z"/>
			<path fill="#FFFFFF" d="M285.9,415.14v-4.6h-21.02v17.96h21.02v-4.61h-14.02v-2.3h14.02v-4.16h-14.02v-2.3H285.9z"/>
			<path fill="#FFFFFF" d="M307.13,410.54h-8.33l-9.64,17.96h7.88l1.42-3.08h8.99l1.42,3.08h7.88L307.13,410.54z M300.51,421.05
				l2.47-5.31l2.46,5.31H300.51z"/>
			<path fill="#FFFFFF" d="M337.56,410.51v9.52l-7.89-9.52h-9.64v17.96h7v-10.97l9.65,10.97h7.88v-17.96H337.56z"/>
		</g>
		<g>
			<path fill="#FFFFFF" d="M420.39,439.62v-8.7h-4.04v12.75h12.13v-4.04H420.39z"/>
			<path fill="#FFFFFF" d="M437.04,439.62v-8.7H433v12.75h12.13v-4.04H437.04z"/>
			<path fill="#FFFFFF" d="M455.68,439.93c-1.65-0.03-3.06-0.41-3.03-2.48v-0.31c-0.03-2.09,1.38-2.46,3.03-2.49
				c1.38,0,2.53,0.3,2.91,1.55h4.14c-0.25-4.3-3.32-5.59-7.05-5.6c-3.89,0.02-7.1,1.41-7.08,6.22v0.93
				c-0.01,4.82,3.19,6.21,7.08,6.22c3.73,0,6.8-1.29,7.05-5.6h-4.14C458.22,439.64,457.06,439.93,455.68,439.93z"/>
		</g>
		<path fill="#F9C712" d="M207.43,322.82c-2.3-6.4-5.41-11.57-9.34-15.49c-3.92-3.92-8.5-6.76-13.72-8.53
			c-5.22-1.77-10.8-2.65-16.74-2.65h-48.84v100.41h48.84c5.94,0,11.51-0.88,16.74-2.65c5.22-1.76,9.79-4.63,13.72-8.61
			c3.93-3.97,7.04-9.13,9.34-15.49c2.3-6.36,3.45-14.18,3.45-23.45C210.89,337.07,209.74,329.22,207.43,322.82z M155.71,370.25
			h-13.72v-13.72h13.72V370.25z M155.71,353.21h-13.72v-13.72h13.72V353.21z M155.71,336.16h-13.72v-13.72h13.72V336.16z
			 M173.17,370.25h-13.72v-13.72h13.72V370.25z M173.17,353.21h-13.72v-13.72h13.72V353.21z M173.17,336.16h-13.72v-13.72h13.72
			V336.16z"/>
		<path fill="#F9C712" d="M387.01,396.44c0.03-0.51,0.03-1.02,0-1.44c0-0.88-0.02-1.7-0.07-2.58c-0.12-1.06-0.79-1.82-1.92-2.12
			c-0.19-0.04-0.38-0.06-0.56-0.06c-0.86,0-1.65,0.41-2.24,1.23c-0.46,0.72-0.71,1.53-0.72,2.42l-0.1,1.28
			c-0.02,0.46-0.05,0.92-0.07,1.38h-12.4l-32.63-37.33c1.53-1.05,3.12-2.01,4.75-2.89c3.72-2.03,7.6-3.8,11.55-5.27
			c1.23-0.46,2.47-0.89,3.72-1.3l32.4,36.45l0.98,1.1l8.13,9.16l0.07,0.08h-10.9V396.44z"/>
		<path fill="#F9C712" d="M331.12,363.24c0.44-0.38,0.88-0.76,1.33-1.12v28.18c-0.52-0.41-1.04-0.83-1.55-1.25
			c-2.26-1.83-4.22-3.95-5.82-6.27c-2.41-3.71-2.57-7.42-0.52-11.31C326.26,368.35,328.47,365.59,331.12,363.24z"/>
		<path fill="#F9C712" d="M397.91,296.14l-0.06,0.06l-9.13,10.28l-34.22,38.51c-0.81,0.24-1.61,0.5-2.41,0.77
			c-6.42,2.14-12.63,5.03-18.45,8.61c-0.34,0.2-0.69,0.42-1.02,0.65l-0.18-0.2v0.31c-3.09,2-5.95,4.36-8.52,7.03
			c-1.34,1.38-2.57,2.86-3.65,4.41c-1.13,1.6-2.04,3.36-2.71,5.21c-1.37,3.78-1.2,7.51,0.51,11.09c0.77,1.62,1.74,3.13,2.88,4.55
			c2.24,2.61,4.79,4.97,7.55,7.03c0.92,0.69,1.85,1.37,2.8,2.04h-20.95V296.2h22.1v41.39l36.48-41.45H397.91z"/>
		<path fill="#F9C712" d="M221.94,296.2v100.26h-33.86c4.74-1.96,8.99-4.84,12.66-8.56c4.29-4.33,7.72-10,10.19-16.83
			c0.72-2,1.35-4.14,1.85-6.4c1.22-5.38,1.83-11.52,1.83-18.32c0-6.82-0.61-12.98-1.83-18.39c-0.51-2.27-1.12-4.4-1.84-6.39
			c-2.48-6.91-5.91-12.58-10.22-16.87c-3.68-3.68-7.94-6.53-12.69-8.5H221.94z"/>
		<path d="M343.06,396.43l0.03,0.12h0.17C343.19,396.51,343.13,396.46,343.06,396.43z"/>
		<path fill="#FFFFFF" d="M406.48,346.36c-0.79-0.69-1.64-1.33-2.55-1.9c-1.49-0.91-3.04-1.61-4.67-2.09
			c-1.62-0.49-3.29-0.86-5.01-1.09c-2.88-0.46-5.78-0.65-8.68-0.57c-2.9,0.08-5.8,0.3-8.68,0.69c-8.3,1.13-16.42,3.03-24.37,5.69
			c-6.37,2.12-12.42,4.95-18.16,8.48c-3.44,2.08-6.6,4.6-9.45,7.55c-1.28,1.33-2.46,2.75-3.52,4.25c-1.06,1.5-1.91,3.12-2.55,4.89
			c-1.24,3.43-1.09,6.77,0.46,10.01c0.73,1.52,1.62,2.93,2.68,4.24c2.18,2.54,4.62,4.81,7.33,6.82c4.37,3.27,8.92,6.26,13.65,8.99
			c1.36,0.83,2.73,1.63,4.09,2.42c3.28,1.88,6.54,3.77,9.78,5.69c2.67,1.54,5.24,3.26,7.69,5.13c0.06,0.07,0.12,0.11,0.19,0.15
			c0.18,0.12,0.34,0.27,0.48,0.45c0.13,0.18,0.19,0.44,0.17,0.77l-0.91,0.46c-0.58,0.3-1.17,0.6-1.78,0.91
			c-1.43,0.7-2.82,1.47-4.16,2.3c-1.35,0.84-2.61,1.78-3.8,2.84c-0.94,0.81-1.69,1.78-2.27,2.91c-0.86,1.75-1.01,3.45-0.47,5.09
			c0.55,1.64,1.69,2.91,3.42,3.82c1.27,0.63,2.63,1,4.1,1.1c3.72,0.21,7.34-0.32,10.87-1.59c0.99-0.37,1.94-0.83,2.86-1.36
			c2.7-1.69,3.72-4.11,3.06-7.24c-0.28-1.21-0.7-2.35-1.26-3.43c-0.56-1.07-1.23-2.11-1.99-3.12c-0.18-0.23-0.36-0.46-0.53-0.68
			c-0.43-0.39-0.76-0.88-1-1.49c4.51-3.18,7.81-6.06,9.91-8.64c0.25-0.3,0.48-0.63,0.68-0.97c0,0.5-0.01,0.97-0.04,1.42l-0.19,5.09
			c-0.05,1.52,0.09,2.93,0.44,4.23c0.34,1.3,0.92,2.35,1.73,3.14c0.81,0.79,1.88,1.19,3.21,1.19c1.09-0.06,2.24-0.51,3.45-1.33
			c1.21-0.82,2.37-1.79,3.45-2.9c0.93-0.95,1.72-1.84,2.39-2.68c0.12-0.15,0.23-0.29,0.34-0.44c0.73-0.96,1.15-1.62,1.25-1.98
			c0.11-0.37-0.22-0.18-0.98,0.55c-0.11,0.1-0.23,0.2-0.36,0.31c-0.16,0.13-0.31,0.27-0.45,0.41c-0.18,0.18-0.35,0.37-0.5,0.56
			c-1.21,1.12-2.44,2.16-3.67,3.13s-2.38,1.65-3.44,2.03c-1.07,0.37-1.92,0.26-2.58-0.34c-0.67-0.61-1.03-1.93-1.1-3.97
			c0-2.96,0.09-5.87,0.27-8.72c0.07-1.4,0.12-2.58,0.15-3.56c-0.03-1.14,0.09-1.9,0.34-2.29c0.25-0.37,0.93-0.56,2.01-0.56
			c0.65,0,1.38,0.01,2.2,0.04c1.21,0,2.93-0.06,5.15-0.18c3.67-0.08,5.4-0.38,5.18-0.9c-0.22-0.51-1.69-0.74-4.42-0.66
			s-4.37,0.11-4.92,0.11h-3.68c-0.76,0-1.23-0.1-1.43-0.28c-0.19-0.18-0.27-0.63-0.25-1.35c-0.03-0.53-0.04-1.03-0.04-1.51
			c0.03-0.46,0.03-0.91,0-1.36c0-0.81-0.02-1.62-0.06-2.42c-0.06-0.48-0.32-0.79-0.81-0.91c-0.55-0.11-1.01,0.08-1.36,0.56
			c-0.33,0.51-0.5,1.09-0.5,1.72l-0.1,1.28c-0.03,0.81-0.07,1.62-0.13,2.42c-0.04,0.76-0.15,1.26-0.33,1.52
			c-0.18,0.25-0.67,0.39-1.49,0.39c-0.25,0-0.53-0.02-0.86-0.04c-0.53-0.03-1.06-0.03-1.61-0.02c-0.55,0.01-1.01,0.1-1.4,0.25
			c-0.55,0.27-0.72,0.55-0.51,0.81c0.22,0.27,0.64,0.44,1.28,0.51h1.63c0.73,0,1.34,0.02,1.82,0.04c0.79,0.05,1.2,0.53,1.25,1.45
			c0.04,0.91-0.65,2.23-2.11,3.96c-1.46,1.73-3.47,3.58-6.05,5.55c-2.98,2.28-5.1,3.1-6.37,2.46c-1.46-1.16-2.96-2.23-4.51-3.24
			c-1.54-1-3.12-1.97-4.74-2.9c-2.25-1.34-4.51-2.67-6.78-3.97c-3.42-2-6.85-4.02-10.28-6.08c-4.07-2.42-7.93-5.15-11.6-8.19
			c-2.35-1.92-4.39-4.11-6.1-6.6c-2.69-4.13-2.88-8.38-0.58-12.74c1.79-3.28,4.08-6.14,6.86-8.6c3.13-2.75,6.53-5.12,10.19-7.09
			c3.8-2.07,7.71-3.85,11.74-5.36c4.03-1.5,8.14-2.77,12.33-3.8c3.21-0.79,6.44-1.47,9.69-2.04c3.24-0.57,6.51-0.95,9.81-1.15
			c2.16-0.15,4.32-0.14,6.46,0.03c2.13,0.17,4.27,0.54,6.39,1.1c2.25,0.58,4.28,1.59,6.1,3.02c3.85,3.14,5.18,7.14,3.99,11.99
			c-0.48,1.8-1.26,3.46-2.32,5.01c-1.49,2.32-3.22,4.42-5.19,6.32c-0.2,0.18-0.28,0.41-0.22,0.69c0.1,0.27,0.29,0.43,0.6,0.46
			c1.09,0.27,2.04-0.02,2.86-0.87c1.21-1.21,2.35-2.49,3.44-3.81c1.08-1.33,2.04-2.75,2.88-4.27c0.46-0.86,0.84-1.74,1.14-2.65
			C411.72,354.54,410.52,350.06,406.48,346.36z M368.5,419.25c0.91,0.99,1.7,2.04,2.39,3.15c0.68,1.11,1.19,2.31,1.54,3.61
			c0.81,3.13-0.27,5.33-3.25,6.6c-2.39,1.1-5.04,1.7-7.96,1.78h-0.31c-0.36-0.03-0.76-0.07-1.22-0.13
			c-1.92-0.34-3.23-1.26-3.94-2.74c-0.71-1.48-0.61-3.09,0.3-4.82c0.48-0.84,1.09-1.58,1.82-2.22c1.36-1.13,2.79-2.14,4.29-3.04
			c1.5-0.9,3.05-1.7,4.67-2.42C367.46,418.68,368.01,418.75,368.5,419.25z"/>
		<path fill="#FFFFFF" d="M419.74,413.6c-0.21,0.01-0.52,0.15-0.93,0.39c-0.32,0.18-0.69,0.44-1.13,0.77
			c-1,0.74-2.06,1.59-3.19,2.53c-1.12,0.93-2.05,1.74-2.78,2.42c-0.56,0.48-0.87,0.74-0.91,0.76c0-3.58,0.02-6.6,0.06-9.06
			c0-0.69-0.04-1.38-0.11-2.09c-0.05-0.36-0.25-0.63-0.58-0.83c-0.65-0.3-1.25-0.33-1.81-0.08c-0.56,0.25-0.91,0.69-1.07,1.32
			c-0.05,0.39-0.1,0.78-0.14,1.18c-0.06,0.3-0.1,0.61-0.13,0.91c-0.07,0.3-0.11,0.6-0.15,0.91c-0.12,0.86-0.29,1.65-0.5,2.39
			c-0.21,0.74-0.58,1.46-1.14,2.16c-1.16,1.33-2.09,1.97-2.78,1.89c-0.7-0.08-1.18-0.6-1.45-1.57c-0.27-0.97-0.39-2.11-0.34-3.43
			c0.04-1.31,0.2-2.54,0.48-3.67c0.1-0.33-0.01-0.56-0.31-0.68c-0.3-0.13-0.69-0.19-1.14-0.19c-0.46,0-0.87,0.05-1.24,0.15
			c-0.91,0.18-1.54,0.82-1.88,1.91c-0.29,0.94-0.38,1.99-0.25,3.14c0.02,0.19,0.04,0.38,0.08,0.58c0.03,0.2,0.07,0.39,0.11,0.57
			c0.26,1.15,0.72,2.19,1.38,3.11c0.77,1.07,1.83,1.7,3.17,1.88h0.17c0.58,0.07,1.19,0.09,1.85,0.06c0.66-0.04,1.31-0.24,1.96-0.62
			c0.65-0.38,1.28-1.04,1.89-1.97c0,0.2,0.02,0.44,0.06,0.72c0.03,0.85,0.03,1.73-0.01,2.65c-0.04,0.91-0.16,1.71-0.36,2.4
			c-0.48,0.43-1.29,1.27-2.41,2.53c-1.12,1.26-2.32,2.82-3.6,4.68c-1.27,1.87-2.42,3.9-3.43,6.13c-1.02,2.22-1.66,4.49-1.96,6.82
			c-0.29,2.33,0.01,4.6,0.89,6.82c1.14,2.63,3.25,3.9,6.33,3.82c1.6-0.12,2.91-0.83,3.95-2.11c1.03-1.29,1.83-2.95,2.39-4.99
			c0.56-2.03,0.95-4.2,1.16-6.52c0.21-2.32,0.33-4.56,0.36-6.73c0.03-2.17,0.03-4.02,0-5.57v-1.96c0-1.03,0.25-2.16,0.76-3.39
			c0.5-1.23,1.16-2.19,1.97-2.88c0.73-0.73,1.69-1.6,2.88-2.61c0.88-0.76,1.7-1.49,2.46-2.18c0.23-0.22,0.45-0.42,0.64-0.62
			c0.43-0.43,0.75-0.8,0.97-1.11C420.31,413.87,420.22,413.63,419.74,413.6z M406.32,433.58c-0.04,0.36-0.06,0.7-0.06,1.03
			c-0.03,0.3-0.06,0.66-0.08,1.06c-0.1,1.18-0.23,2.67-0.39,4.46c-0.16,1.78-0.4,3.61-0.7,5.48c-0.3,1.87-0.69,3.49-1.16,4.87
			c-0.47,1.38-1.04,2.24-1.73,2.6c-0.68,0.35-1.48-0.1-2.39-1.36c-0.76-1.11-1.19-2.34-1.28-3.68c-0.11-2.15,0.15-4.35,0.79-6.6
			c0.63-2.25,1.51-4.41,2.63-6.48c1.12-2.08,2.32-3.93,3.59-5.57c0.1-0.08,0.2-0.16,0.3-0.23c0.11-0.08,0.23-0.06,0.39,0.05
			c0.07,0.04,0.12,0.11,0.17,0.2c0.04,0.09,0.06,0.16,0.06,0.22C406.39,430.95,406.35,432.27,406.32,433.58z"/>
		<path fill="#FFFFFF" d="M433.76,413.56c-0.27,0-0.53,0.29-0.76,0.85c-0.35,0.8-0.84,1.72-1.49,2.76c-0.65,1.04-1.4,2-2.24,2.88
			c-0.85,0.88-1.7,1.46-2.56,1.74c-0.85,0.27-1.62,0.04-2.31-0.69c-0.74-0.88-1.3-2.08-1.71-3.6c-0.41-1.51-0.67-2.97-0.8-4.36
			c-0.1-1.28,0.04-2.24,0.42-2.88c0.69-1.57,1.55-3.7,2.58-6.39c1.03-2.69,1.92-5.8,2.67-9.33c0.74-3.53,1.29-6.84,1.63-9.95
			c0.35-3.11,0.38-6.06,0.11-8.86c-0.08-0.81-0.26-1.61-0.52-2.4c-0.26-0.79-0.65-1.53-1.16-2.23c-0.76-0.91-1.62-1.36-2.6-1.34
			c-0.97,0.01-1.82,0.51-2.55,1.49c-1.27,2-2.23,4.82-2.89,8.45c-0.65,3.64-1.07,7.59-1.25,11.85c-0.18,4.26-0.22,8.3-0.11,12.12
			c0.1,3.82,0.27,6.9,0.49,9.24c0.03,0.36,0.06,0.71,0.1,1.07c0.04,0.48,0.11,0.96,0.2,1.45c0.07,0.43,0.15,0.87,0.25,1.31
			c0.29,1.32,0.73,2.53,1.32,3.64c0.6,1.11,1.4,1.96,2.41,2.55c1.01,0.59,2.3,0.78,3.85,0.56c1.14-0.23,2.13-0.76,2.96-1.59
			c1.09-1.02,1.95-2.17,2.58-3.46c0.63-1.29,1.18-2.64,1.64-4.04C434.13,413.84,434.04,413.56,433.76,413.56z M421.33,407.95
			c0.07-1.18,0.13-2.84,0.19-4.96c0.07-1.9,0.14-3.78,0.22-5.62c0.08-1.84,0.15-3.22,0.23-4.13c0.07-1.02,0.15-2.04,0.23-3.08
			c0.3-4.19,0.73-8.37,1.28-12.56c0.36-2.52,0.84-4.18,1.45-4.96c0.61-0.79,1.17-0.7,1.69,0.25c0.51,0.95,0.84,2.76,0.96,5.43
			c-0.22,4.58-0.7,8.83-1.43,12.76c-0.74,3.93-1.56,7.34-2.45,10.24C422.8,404.23,422.01,406.44,421.33,407.95z"/>
		<path fill="#FFFFFF" d="M458.4,413.66c-0.09-0.11-0.28-0.11-0.56-0.02c-0.29,0.1-0.59,0.23-0.89,0.41
			c-0.33,0.18-0.7,0.41-1.14,0.69c-1,0.63-2.13,1.31-3.39,2.01c-1.26,0.71-2.54,1.33-3.85,1.87c-1.31,0.53-2.55,0.84-3.71,0.94
			c-1.16,0.1-2.15-0.18-2.96-0.83c-1.31-1.09-1.86-2.49-1.66-4.22c0.04-0.63,0.19-1.08,0.44-1.35c0.25-0.26,0.7-0.39,1.33-0.39
			c1.31-0.05,2.62-0.19,3.91-0.41c1.16-0.15,2.18-0.62,3.06-1.4c0.43-0.46,0.62-0.93,0.57-1.43c-0.05-0.5-0.32-0.93-0.8-1.3
			c-0.52-0.33-1.1-0.55-1.73-0.64c-1.4-0.23-2.79-0.2-4.18,0.1c-1.67,0.43-3.05,1.24-4.14,2.43c-1.1,1.19-1.76,2.64-2,4.35
			c-0.27,2.15,0.39,3.97,2.01,5.46c1.06,0.96,2.24,1.54,3.53,1.71c1.29,0.18,2.59,0.11,3.9-0.21c1.32-0.32,2.57-0.74,3.76-1.28
			c1.51-0.67,2.99-1.5,4.43-2.49c1.44-0.98,2.68-2.07,3.71-3.26C458.37,414.02,458.49,413.77,458.4,413.66z M442.04,410.84
			c0.08-0.08,0.16-0.15,0.25-0.23c0.09-0.08,0.17-0.14,0.22-0.2c0.04,0,0.06-0.01,0.06-0.04c0.41-0.3,0.85-0.56,1.31-0.77
			c0.45-0.21,0.96-0.32,1.5-0.32c0.13,0.03,0.24,0.07,0.34,0.13c0.1,0.06,0.19,0.13,0.26,0.22c0.15,0.28,0.04,0.51-0.34,0.72
			c-0.38,0.2-0.85,0.36-1.42,0.47c-0.56,0.12-1.09,0.2-1.55,0.25c-0.47,0.04-0.72,0.02-0.75-0.08
			C441.93,410.97,441.96,410.92,442.04,410.84z"/>
		<path fill="#F9C712" d="M305.69,296.2v100.26h-14.74l0.02,0.08h-18.01l-5.45-19.88l-3.93-14.32c0.01,0,0.01,0,0.01,0l-4.35-15.88
			l-3.38,12.35c0,0.01,0,0.01-0.01,0.01l-10.34,37.72h-18.01l0.03-0.08h-14.74v-31.8c1.22-5.38,1.83-11.52,1.83-18.32
			c0-6.82-0.61-12.98-1.83-18.39V296.2h22.1v73.52l14.95-54.32l0.26-0.95h18.29l15.21,55.28V296.2H305.69z"/>
	</g>
</g>
</svg>
