<?xml version="1.0" encoding="iso-8859-1"?>
<!-- Generator: Adobe Illustrator 26.0.1, SVG Export Plug-In . SVG Version: 6.00 Build 0)  -->
<svg version="1.0" id="&#x421;&#x43B;&#x43E;&#x439;_1"
	 xmlns="http://www.w3.org/2000/svg" xmlns:xlink="http://www.w3.org/1999/xlink" x="0px" y="0px" viewBox="0 0 500 500"
	 enable-background="new 0 0 500 500" xml:space="preserve">
<path fill="#F9C712" d="M420.52,371.33c-6.94,0.77-12.34-2.7-16.97-7.33c-49.36-49.36-98.72-98.72-148.47-148.47
	c-5.4-5.4-5.4-5.4-10.8,0c-48.98,48.98-97.57,97.57-146.54,146.54c-3.86,3.86-7.71,6.56-12.73,8.1c-7.33,2.31-15.43,1.16-20.82-4.24
	c-5.78-5.4-11.57-10.41-16.58-16.58c-6.56-8.48-6.94-19.28-0.39-27.38c4.63-6.17,10.41-11.57,15.81-16.97
	c55.53-55.92,111.45-111.45,166.98-167.37c3.86-3.86,7.33-6.56,12.73-8.1c6.56-1.93,14.65-1.16,21.21,3.47
	c5.78,4.24,10.41,8.87,15.04,13.88c55.53,55.53,111.06,111.06,166.6,166.6c3.47,3.47,5.78,7.71,8.87,11.57
	c3.09,4.24,3.47,8.87,2.7,13.5c-1.16,4.24-2.31,8.87-5.78,11.95c-4.63,4.24-9.26,9.26-13.88,13.5
	C432.48,369.4,427.08,372.1,420.52,371.33z"/>
</svg>
