<svg id="Capa_1" data-name="Capa 1" xmlns="http://www.w3.org/2000/svg" viewBox="0 0 124.05 124.05"><defs><style>.cls-1{fill:gray;stroke:gray;stroke-miterlimit:10;}</style></defs><path class="cls-1" d="M121.32,10.93l-8.5-8.4a6.1,6.1,0,0,0-8.5,0L61.92,44.92,18.73,1.73a6.08,6.08,0,0,0-8.5,0l-8.5,8.5a6.08,6.08,0,0,0,0,8.5l43.1,43.1-42.3,42.5a6.1,6.1,0,0,0,0,8.5l8.5,8.5a6.1,6.1,0,0,0,8.5,0l42.39-42.4,42.4,42.4a6.1,6.1,0,0,0,8.5,0l8.5-8.5a6.08,6.08,0,0,0,0-8.5l-42.5-42.4,42.4-42.4A6.11,6.11,0,0,0,121.32,10.93Z" transform="translate(0.5 0.5)"/></svg>