<?xml version="1.0" encoding="utf-8"?>
<!-- Generator: Adobe Illustrator 26.0.1, SVG Export Plug-In . SVG Version: 6.00 Build 0)  -->
<svg version="1.1" id="Слой_1" xmlns="http://www.w3.org/2000/svg" xmlns:xlink="http://www.w3.org/1999/xlink" x="0px" y="0px"
	 viewBox="0 0 142.6 108.4" style="enable-background:new 0 0 142.6 108.4;" xml:space="preserve">
<style type="text/css">
	.st0{fill:#808080;}
</style>
<path class="st0" d="M72.8,98.5c-0.2-1.8,0.7-3.2,1.9-4.4c12.8-12.8,25.6-25.6,38.5-38.5c1.4-1.4,1.4-1.4,0-2.8
	c-12.7-12.7-25.3-25.3-38-38c-1-1-1.7-2-2.1-3.3c-0.6-1.9-0.3-4,1.1-5.4c1.4-1.5,2.7-3,4.3-4.3c2.2-1.7,5-1.8,7.1-0.1
	c1.6,1.2,3,2.7,4.4,4.1c14.5,14.4,28.9,28.9,43.4,43.3c1,1,1.7,1.9,2.1,3.3c0.5,1.7,0.3,3.8-0.9,5.5c-1.1,1.5-2.3,2.7-3.6,3.9
	c-14.4,14.4-28.8,28.8-43.2,43.2c-0.9,0.9-2,1.5-3,2.3c-1.1,0.8-2.3,0.9-3.5,0.7c-1.1-0.3-2.3-0.6-3.1-1.5c-1.1-1.2-2.4-2.4-3.5-3.6
	C73.3,101.6,72.6,100.2,72.8,98.5z"/>
</svg>
